<?xml version="1.0" standalone="no"?>
<!DOCTYPE svg PUBLIC "-//W3C//DTD SVG 20010904//EN"
 "http://www.w3.org/TR/2001/REC-SVG-20010904/DTD/svg10.dtd">
<svg version="1.0" xmlns="http://www.w3.org/2000/svg"
 width="1563.000000pt" height="1563.000000pt" viewBox="0 0 1563.000000 1563.000000"
 preserveAspectRatio="xMidYMid meet">

<g transform="translate(0.000000,1563.000000) scale(0.100000,-0.100000)"
fill="#000000" stroke="none">
<path d="M0 7815 l0 -7815 7815 0 7815 0 0 7815 0 7815 -7815 0 -7815 0 0
-7815z m3435 4686 c902 -119 1380 -619 1511 -1581 22 -166 31 -828 39 -2925 7
-1834 5 -1950 -31 -2245 -84 -677 -311 -1187 -649 -1459 -229 -184 -469 -283
-840 -348 -91 -15 -222 -17 -1407 -20 l-1308 -4 0 4301 0 4301 1298 -4 c916
-3 1323 -8 1387 -16z m4789 -13 c3 -18 163 -1185 356 -2593 193 -1408 354
-2568 358 -2578 4 -9 168 1153 364 2584 197 1430 360 2605 364 2610 3 5 536 9
1320 9 l1314 0 0 -4300 0 -4300 -785 0 -785 0 -2 3072 -3 3072 -488 -3055
c-269 -1680 -491 -3062 -494 -3071 -4 -17 -49 -18 -773 -18 -723 0 -768 1
-772 18 -2 9 -238 1395 -524 3080 l-519 3062 -3 -3080 -2 -3080 -775 0 -775 0
0 4300 0 4300 1309 0 1309 0 6 -32z m6424 -4270 l2 -4298 -830 0 -830 0 0
4300 0 4300 828 -2 827 -3 3 -4297z"/>
<path d="M2480 8224 l0 -2786 218 5 c232 5 283 13 369 64 86 50 152 151 173
265 7 36 9 862 7 2449 -3 2268 -4 2398 -21 2469 -61 255 -176 320 -567 320
l-179 0 0 -2786z"/>
</g>
</svg>
